<?xml version="1.0" encoding="utf-8"?>
<!-- Generator: Adobe Illustrator 18.0.0, SVG Export Plug-In . SVG Version: 6.00 Build 0)  -->
<!DOCTYPE svg PUBLIC "-//W3C//DTD SVG 1.1//EN" "http://www.w3.org/Graphics/SVG/1.1/DTD/svg11.dtd">
<svg version="1.1" id="Warstwa_1" xmlns="http://www.w3.org/2000/svg" xmlns:xlink="http://www.w3.org/1999/xlink" x="0px" y="0px"
	 viewBox="0 0 65 65" enable-background="new 0 0 65 65" xml:space="preserve">
<g>
	<g>
		<path d="M64,65.1H1c-0.5,0-1-0.4-1-1v-6.8c0-1.5,1.2-2.7,2.7-2.7h59.5c1.5,0,2.7,1.2,2.7,2.7v6.8C65,64.6,64.5,65.1,64,65.1z
			 M2,63.1H63v-5.8c0-0.4-0.4-0.7-0.8-0.7H2.7C2.3,56.6,2,57,2,57.4V63.1z"/>
	</g>
	<g>
		<path d="M12.7,51.1c-0.5,0-1-0.4-1-1V17.9c0-0.4-0.3-0.7-0.7-0.7H2.7c-0.4,0-0.7,0.3-0.7,0.7v32.3c0,0.5-0.4,1-1,1s-1-0.4-1-1
			V17.9c0-1.4,1.2-2.6,2.7-2.6h8.3c1.5,0,2.7,1.2,2.7,2.6v32.3C13.6,50.7,13.2,51.1,12.7,51.1z"/>
	</g>
	<g>
		<path d="M46.9,51.1c-0.5,0-1-0.4-1-1V36.5c0-0.4-0.3-0.7-0.7-0.7h-8.3c-0.4,0-0.7,0.3-0.7,0.7v13.7c0,0.5-0.4,1-1,1
			c-0.5,0-1-0.4-1-1V36.5c0-1.4,1.2-2.6,2.7-2.6h8.3c1.5,0,2.7,1.2,2.7,2.6v13.7C47.9,50.7,47.4,51.1,46.9,51.1z"/>
	</g>
	<g>
		<path d="M64,51.1c-0.5,0-1-0.4-1-1V24.7c0-0.4-0.3-0.7-0.7-0.7h-8.3c-0.4,0-0.7,0.3-0.7,0.7v25.5c0,0.5-0.4,1-1,1s-1-0.4-1-1V24.7
			c0-1.4,1.2-2.6,2.7-2.6h8.3c1.5,0,2.7,1.2,2.7,2.6v25.5C65,50.7,64.6,51.1,64,51.1z"/>
	</g>
	<g>
		<path d="M29.8,51.1c-0.5,0-1-0.4-1-1V2.7c0-0.4-0.3-0.7-0.7-0.7h-8.3c-0.4,0-0.7,0.3-0.7,0.7v47.5c0,0.5-0.4,1-1,1
			c-0.5,0-1-0.4-1-1V2.7c0-1.4,1.2-2.6,2.7-2.6h8.3c1.5,0,2.7,1.2,2.7,2.6v47.5C30.8,50.7,30.3,51.1,29.8,51.1z"/>
	</g>
</g>
</svg>
