<?xml version="1.0" encoding="utf-8"?>
<!-- Generator: Adobe Illustrator 18.0.0, SVG Export Plug-In . SVG Version: 6.00 Build 0)  -->
<!DOCTYPE svg PUBLIC "-//W3C//DTD SVG 1.1//EN" "http://www.w3.org/Graphics/SVG/1.1/DTD/svg11.dtd">
<svg version="1.1" id="Warstwa_1" xmlns="http://www.w3.org/2000/svg" xmlns:xlink="http://www.w3.org/1999/xlink" x="0px" y="0px"
	 viewBox="0 0 618 363" enable-background="new 0 0 618 363" xml:space="preserve">
<g>
	<g>
		<defs>
			<rect id="SVGID_1_" x="0.6" y="0.1" width="618" height="363"/>
		</defs>
		<clipPath id="SVGID_2_">
			<use xlink:href="#SVGID_1_"  overflow="visible"/>
		</clipPath>
		<g clip-path="url(#SVGID_2_)">
			<path fill="#D1D3D4" d="M562.6,337.5H56.7V13.8c0-13.4,13.5-13.6,13.6-13.6h478.6c13.5,0,13.6,13.5,13.6,13.6V337.5z M58.7,335.5
				h501.9V13.8c0-0.5-0.2-11.6-11.6-11.6H70.3c-0.5,0-11.6,0.2-11.6,11.6V335.5z"/>
		</g>
	</g>
	<g>
		<path fill="#D1D3D4" d="M545.8,313.5H73.4V21.8h472.4V313.5z M75.4,311.5h468.4V23.8H75.4V311.5z"/>
	</g>
	<g>
		<defs>
			<rect id="SVGID_3_" x="0.6" y="0.1" width="618" height="363"/>
		</defs>
		<clipPath id="SVGID_4_">
			<use xlink:href="#SVGID_3_"  overflow="visible"/>
		</clipPath>
		<g clip-path="url(#SVGID_4_)">
			<path fill="#D1D3D4" d="M310.4,16.4c-2.7,0-4.9-2.2-4.9-4.9c0-2.7,2.2-4.9,4.9-4.9c2.7,0,4.9,2.2,4.9,4.9
				C315.3,14.2,313.1,16.4,310.4,16.4z M310.4,8.7c-1.6,0-2.9,1.3-2.9,2.9s1.3,2.9,2.9,2.9c1.6,0,2.9-1.3,2.9-2.9S312,8.7,310.4,8.7
				z"/>
		</g>
		<g clip-path="url(#SVGID_4_)">
			<path fill="#D1D3D4" d="M603.6,363h-588c-14.7,0-14.9-14.7-14.9-14.9v-12.5h617.8v12.5C618.5,362.8,603.8,363,603.6,363z
				 M2.7,337.6v10.5c0,0.5,0.2,12.9,12.9,12.9h588h0c0.5,0,12.9-0.2,12.9-12.9v-10.5H2.7z"/>
		</g>
		<g clip-path="url(#SVGID_4_)">
			<path fill="#D1D3D4" d="M335.2,347.4h-48.6c-5.5,0-7-4.1-7-6.3v-5.4h62.6v5.4C342.2,346.1,337.6,347.4,335.2,347.4z M281.6,337.6
				v3.4c0,0.4,0.2,4.3,5,4.3h48.6c0.5,0,5-0.2,5-4.3v-3.4H281.6z"/>
		</g>
	</g>
</g>
</svg>
