<?xml version="1.0" encoding="utf-8"?>
<!-- Generator: Adobe Illustrator 18.0.0, SVG Export Plug-In . SVG Version: 6.00 Build 0)  -->
<!DOCTYPE svg PUBLIC "-//W3C//DTD SVG 1.1//EN" "http://www.w3.org/Graphics/SVG/1.1/DTD/svg11.dtd">
<svg version="1.1" id="Warstwa_1" xmlns="http://www.w3.org/2000/svg" xmlns:xlink="http://www.w3.org/1999/xlink" x="0px" y="0px"
	 viewBox="0 0 506 405" enable-background="new 0 0 506 405" xml:space="preserve">
<g>
	<defs>
		<rect id="SVGID_1_" x="118" y="178.7" width="283" height="224"/>
	</defs>
	<clipPath id="SVGID_2_">
		<use xlink:href="#SVGID_1_"  overflow="visible"/>
	</clipPath>
	<g clip-path="url(#SVGID_2_)">
		<path fill="#D1D3D4" d="M325.6,402.8H193.5c-2.8,0-5.1-2.3-5.1-5.1s2.3-5.1,5.1-5.1h18.1l5.9-20.4h-85.7
			c-7.7,0-13.9-6.2-13.9-13.8v-166c0-7.6,6.3-13.8,13.9-13.8h255.3c7.7,0,13.9,6.2,13.9,13.8v166c0,7.6-6.3,13.8-13.9,13.8h-85.7
			l5.9,20.4h18.1c2.8,0,5.1,2.3,5.1,5.1S328.4,402.8,325.6,402.8z M193.5,394.6c-1.7,0-3.1,1.4-3.1,3.1c0,1.7,1.4,3.1,3.1,3.1h132.1
			c1.7,0,3.1-1.4,3.1-3.1c0-1.7-1.4-3.1-3.1-3.1h-19.7l-7-24.4h88.3c6.6,0,11.9-5.3,11.9-11.8v-166c0-6.5-5.4-11.8-11.9-11.8H131.9
			c-6.6,0-11.9,5.3-11.9,11.8v166c0,6.5,5.4,11.8,11.9,11.8h88.3l-7,24.4H193.5z M299.4,394.6h-79.8l7-24.4h65.7L299.4,394.6z
			 M222.3,392.6h74.5l-5.9-20.4h-62.7L222.3,392.6z M387.2,364H131.9c-3.1,0-5.7-2.5-5.7-5.6v-166c0-3.1,2.5-5.6,5.7-5.6h255.3
			c3.1,0,5.7,2.5,5.7,5.6v166C392.9,361.5,390.3,364,387.2,364z M131.9,188.7c-2,0-3.7,1.6-3.7,3.6v166c0,2,1.6,3.6,3.7,3.6h255.3
			c2,0,3.7-1.6,3.7-3.6v-166c0-2-1.7-3.6-3.7-3.6H131.9z"/>
	</g>
</g>
<g>
	<polyline fill="none" stroke="#148DCE" points="424.1,122.2 343,122.2 343,237 	"/>
	<g>
		<g>
			<defs>
				<rect id="SVGID_3_" x="-17.3" y="0.6" width="553.7" height="341"/>
			</defs>
			<clipPath id="SVGID_4_">
				<use xlink:href="#SVGID_3_"  overflow="visible"/>
			</clipPath>
			<path clip-path="url(#SVGID_4_)" fill="#148DCE" d="M343,240.6c2,0,3.5-1.6,3.5-3.5s-1.6-3.5-3.5-3.5c-2,0-3.5,1.6-3.5,3.5
				C339.5,239,341.1,240.6,343,240.6"/>
		</g>
	</g>
	<polyline fill="none" stroke="#F16742" points="141.8,66.8 222.9,66.8 222.9,211.6 	"/>
	<g>
		<g>
			<defs>
				<rect id="SVGID_5_" x="-17.3" y="0.6" width="553.7" height="341"/>
			</defs>
			<clipPath id="SVGID_6_">
				<use xlink:href="#SVGID_5_"  overflow="visible"/>
			</clipPath>
			<path clip-path="url(#SVGID_6_)" fill="#F16742" d="M222.9,215.1c-2,0-3.5-1.6-3.5-3.5s1.6-3.5,3.5-3.5c2,0,3.5,1.6,3.5,3.5
				S224.7,215.1,222.9,215.1"/>
		</g>
	</g>
	<polyline fill="none" stroke="#EA118D" points="78,146.7 168,146.7 168,237 	"/>
	<g>
		<g>
			<defs>
				<rect id="SVGID_7_" x="-17.3" y="0.6" width="553.7" height="341"/>
			</defs>
			<clipPath id="SVGID_8_">
				<use xlink:href="#SVGID_7_"  overflow="visible"/>
			</clipPath>
			<path clip-path="url(#SVGID_8_)" fill="#EA118D" d="M168,240.6c-2,0-3.5-1.6-3.5-3.5s1.6-3.5,3.5-3.5c2,0,3.5,1.6,3.5,3.5
				C171.6,239,170,240.6,168,240.6"/>
		</g>
	</g>
	<polyline fill="none" stroke="#EC1E52" points="367,36.9 278,36.9 278,199.6 	"/>
	<g>
		<g>
			<defs>
				<rect id="SVGID_9_" x="-17.3" y="0.6" width="553.7" height="341"/>
			</defs>
			<clipPath id="SVGID_10_">
				<use xlink:href="#SVGID_9_"  overflow="visible"/>
			</clipPath>
			<path clip-path="url(#SVGID_10_)" fill="#EC1E52" d="M278,203.1c2,0,3.5-1.6,3.5-3.5s-1.6-3.5-3.5-3.5c-2,0-3.5,1.6-3.5,3.5
				C274.4,201.6,276.1,203.1,278,203.1"/>
		</g>
	</g>
	<line fill="none" stroke="#FAA71C" x1="503.1" y1="284.3" x2="343.6" y2="284.3"/>
	<g>
		<g>
			<defs>
				<rect id="SVGID_11_" x="-17.3" y="0.6" width="553.7" height="341"/>
			</defs>
			<clipPath id="SVGID_12_">
				<use xlink:href="#SVGID_11_"  overflow="visible"/>
			</clipPath>
			<path clip-path="url(#SVGID_12_)" fill="#FAA71C" d="M343.6,287.8c2,0,3.5-1.6,3.5-3.5s-1.6-3.5-3.5-3.5c-2,0-3.5,1.6-3.5,3.5
				C340.1,286.2,341.7,287.8,343.6,287.8"/>
		</g>
	</g>
	<line fill="none" stroke="#7D287E" x1="59.5" y1="270.5" x2="165" y2="270.5"/>
	<g>
		<g>
			<defs>
				<rect id="SVGID_13_" x="-17.3" y="0.6" width="553.7" height="341"/>
			</defs>
			<clipPath id="SVGID_14_">
				<use xlink:href="#SVGID_13_"  overflow="visible"/>
			</clipPath>
			<path clip-path="url(#SVGID_14_)" fill="#7D287E" d="M165,274c-2,0-3.5-1.6-3.5-3.5s1.6-3.5,3.5-3.5s3.5,1.6,3.5,3.5
				C168.6,272.5,167,274,165,274"/>
		</g>
	</g>
	<text transform="matrix(1.0083 0 0 1 349.9248 89.748)" fill="#010101" font-family="'Ubuntu-Bold'" font-size="10.7783">S</text>
	<text transform="matrix(1.0083 0 0 1 356.2764 89.748)" fill="#010101" font-family="'Ubuntu-Bold'" font-size="10.7783">E</text>
	<text transform="matrix(1.0083 0 0 1 362.6289 89.748)" fill="#010101" font-family="'Ubuntu-Bold'" font-size="10.7783">O</text>
	<text transform="matrix(1.0083 0 0 1 413.9775 175.1309)" fill="#010101" font-family="'Ubuntu-Bold'" font-size="10.7783">SO</text>
	<text transform="matrix(1.0083 0 0 1 428.8887 175.1309)" fill="#010101" font-family="'Ubuntu-Bold'" font-size="10.7783">CIAL M</text>
	<text transform="matrix(1.0083 0 0 1 465.6719 175.1309)" fill="#010101" font-family="'Ubuntu-Bold'" font-size="10.7783">E</text>
	<text transform="matrix(1.0083 0 0 1 472.2559 175.1309)" fill="#010101" font-family="'Ubuntu-Bold'" font-size="10.7783">DIA</text>
	<g>
		<g>
			<defs>
				<rect id="SVGID_15_" x="-17.3" y="0.6" width="553.7" height="341"/>
			</defs>
			<clipPath id="SVGID_16_">
				<use xlink:href="#SVGID_15_"  overflow="visible"/>
			</clipPath>
			<path clip-path="url(#SVGID_16_)" fill="#148DCE" d="M450.7,156.8c19.5,0,35.2-15.6,35.2-34.9S470.2,87,450.7,87
				s-35.2,15.6-35.2,34.9S431.2,156.8,450.7,156.8"/>
		</g>
		<g>
			<defs>
				<rect id="SVGID_17_" x="-17.3" y="0.6" width="553.7" height="341"/>
			</defs>
			<clipPath id="SVGID_18_">
				<use xlink:href="#SVGID_17_"  overflow="visible"/>
			</clipPath>
			<path clip-path="url(#SVGID_18_)" fill="#FFFFFF" d="M450.7,123c4,0,7.4-5.1,7.4-9.7s-3.3-7.1-7.4-7.1c-4,0-7.4,2.5-7.4,7.1
				C443.3,117.9,446.7,123,450.7,123 M465.1,130.7v5.3h-28.8v-5.3c0-2,1.8-4.4,3.8-5.4l4.7-2.2l3.3,6.7l1.6-4.5
				c0.3,0.1,0.7,0.1,1,0.1c0.3,0,0.7-0.1,1-0.1l1.5,4.2l3.2-6.5l4.8,2.3C463.4,126.3,465.1,128.7,465.1,130.7"/>
		</g>
	</g>
	<text transform="matrix(1.0083 0 0 1 440.7852 337.4082)" fill="#010101" font-family="'Ubuntu-Bold'" font-size="10.7783">AD</text>
	<text transform="matrix(1.0083 0 0 1 456.5195 337.4082)" fill="#010101" font-family="'Ubuntu-Bold'" font-size="10.7783">W</text>
	<text transform="matrix(1.0083 0 0 1 466.7188 337.4082)" fill="#010101" font-family="'Ubuntu-Bold'" font-size="10.7783">O</text>
	<text transform="matrix(1.0083 0 0 1 475.3096 337.4082)" fill="#010101" font-family="'Ubuntu-Bold'" font-size="10.7783">RD</text>
	<text transform="matrix(1.0083 0 0 1 490.5586 337.4082)" fill="#010101" font-family="'Ubuntu-Bold'" font-size="10.7783">S</text>
	<g>
		<g>
			<defs>
				<rect id="SVGID_19_" x="-17.3" y="0.6" width="553.7" height="341"/>
			</defs>
			<clipPath id="SVGID_20_">
				<use xlink:href="#SVGID_19_"  overflow="visible"/>
			</clipPath>
			<path clip-path="url(#SVGID_20_)" fill="#FAA71C" d="M468.8,318.8c19.5,0,35.2-15.6,35.2-34.9S488.3,249,468.8,249
				s-35.2,15.6-35.2,34.9S449.3,318.8,468.8,318.8"/>
		</g>
	</g>
	<rect x="480.7" y="278.8" fill="#FFFFFF" width="6.5" height="16.8"/>
	<rect x="471.1" y="285.8" fill="#FFFFFF" width="6.5" height="9.8"/>
	<rect x="461.4" y="265.6" fill="#FFFFFF" width="6.5" height="30"/>
	<rect x="451.9" y="274.9" fill="#FFFFFF" width="6.3" height="20.7"/>
	<rect x="451.9" y="298" fill="#FFFFFF" width="35.3" height="1.7"/>
	<g>
		<g>
			<defs>
				<rect id="SVGID_21_" x="-17.3" y="0.6" width="553.7" height="341"/>
			</defs>
			<clipPath id="SVGID_22_">
				<use xlink:href="#SVGID_21_"  overflow="visible"/>
			</clipPath>
			<path clip-path="url(#SVGID_22_)" fill="#EC1E52" d="M360.5,70.4c19.5,0,35.2-15.6,35.2-34.9S379.9,0.6,360.5,0.6
				c-19.5,0-35.2,15.6-35.2,34.9C325.3,54.8,341.1,70.4,360.5,70.4"/>
		</g>
	</g>
	<path fill="#FFFFFF" d="M375.1,43h-29.2V24.3h29.2V43z M378.1,46V21.3h-35.2v24.8h13v2h-2.4v1.5h14.1v-1.5h-2.4v-2L378.1,46
		L378.1,46z"/>
	<polygon fill="#FFFFFF" points="350.8,38.5 370.3,38.5 370.3,29.4 	"/>
	<text transform="matrix(1.0083 0 0 1 151.4741 120.8418)" fill="#010101" font-family="'Ubuntu-Bold'" font-size="10.7783">BL</text>
	<text transform="matrix(1.0083 0 0 1 164.6797 120.8418)" fill="#010101" font-family="'Ubuntu-Bold'" font-size="10.7783">O</text>
	<text transform="matrix(1.0083 0 0 1 173.2671 120.8418)" fill="#010101" font-family="'Ubuntu-Bold'" font-size="10.7783">G</text>
	<text transform="matrix(1.0083 0 0 1 8.4883 324.9434)" fill="#010101" font-family="'Ubuntu-Bold'" font-size="10.7783">S</text>
	<text transform="matrix(1.0083 0 0 1 14.814 324.9434)" fill="#010101" font-family="'Ubuntu-Bold'" font-size="10.7783">H</text>
	<text transform="matrix(1.0083 0 0 1 22.7876 324.9434)" fill="#010101" font-family="'Ubuntu-Bold'" font-size="10.7783">O</text>
	<text transform="matrix(1.0083 0 0 1 31.3755 324.9434)" fill="#010101" font-family="'Ubuntu-Bold'" font-size="10.7783">PPING</text>
	<text transform="matrix(1.0083 0 0 1 30.7461 200.2363)" fill="#010101" font-family="'Ubuntu-Bold'" font-size="10.7783">R</text>
	<text transform="matrix(1.0083 0 0 1 37.9971 200.2363)" fill="#010101" font-family="'Ubuntu-Bold'" font-size="10.7783">E</text>
	<text transform="matrix(1.0083 0 0 1 44.5791 200.2363)" fill="#010101" font-family="'Ubuntu-Bold'" font-size="10.7783">MARK</text>
	<text transform="matrix(1.0083 0 0 1 76.8501 200.2363)" fill="#010101" font-family="'Ubuntu-Bold'" font-size="10.7783">E</text>
	<text transform="matrix(1.0083 0 0 1 83.4355 200.2363)" fill="#010101" font-family="'Ubuntu-Bold'" font-size="10.7783">TING</text>
	<g>
		<g>
			<defs>
				<rect id="SVGID_23_" x="-17.3" y="0.6" width="553.7" height="341"/>
			</defs>
			<clipPath id="SVGID_24_">
				<use xlink:href="#SVGID_23_"  overflow="visible"/>
			</clipPath>
			<path clip-path="url(#SVGID_24_)" fill="#F16742" d="M166.4,103.2c19.5,0,35.2-15.6,35.2-34.9s-15.8-34.9-35.2-34.9
				S131.2,49,131.2,68.3C131.2,87.5,146.9,103.2,166.4,103.2"/>
		</g>
		<g>
			<defs>
				<rect id="SVGID_25_" x="-17.3" y="0.6" width="553.7" height="341"/>
			</defs>
			<clipPath id="SVGID_26_">
				<use xlink:href="#SVGID_25_"  overflow="visible"/>
			</clipPath>
			<path clip-path="url(#SVGID_26_)" fill="#FFFFFF" d="M178,70.2c0,1-0.9,1.9-2,1.9s-1.9-0.9-1.9-1.9c0-1.1,0.9-1.9,1.9-1.9
				C177.1,68.3,178,69.1,178,70.2 M169.9,70.2c0,1-0.9,1.9-1.9,1.9c-1.1,0-2-0.9-2-1.9c0-1.1,0.9-1.9,2-1.9
				C169,68.3,169.9,69.1,169.9,70.2 M161.8,70.2c0,1-0.9,1.9-2,1.9c-1.1,0-1.9-0.9-1.9-1.9c0-1.1,0.9-1.9,1.9-1.9
				C160.9,68.3,161.8,69.1,161.8,70.2 M184.4,67.1c0-6.7-7.3-12.1-16.3-12.1c-9,0-16.3,5.4-16.3,12.1c0,3.6,2.1,6.8,5.5,9l3.4,7.1
				l5.6-4.1c0.7,0.1,1.2,0.1,1.9,0.1C177,79.2,184.4,73.8,184.4,67.1"/>
		</g>
		<g>
			<defs>
				<rect id="SVGID_27_" x="-17.3" y="0.6" width="553.7" height="341"/>
			</defs>
			<clipPath id="SVGID_28_">
				<use xlink:href="#SVGID_27_"  overflow="visible"/>
			</clipPath>
			<path clip-path="url(#SVGID_28_)" fill="#7D287E" d="M36.9,304.5c19.5,0,35.2-15.6,35.2-34.9s-15.8-34.9-35.2-34.9
				S1.7,250.3,1.7,269.6C1.7,288.8,17.5,304.5,36.9,304.5"/>
		</g>
		<g>
			<defs>
				<rect id="SVGID_29_" x="-17.3" y="0.6" width="553.7" height="341"/>
			</defs>
			<clipPath id="SVGID_30_">
				<use xlink:href="#SVGID_29_"  overflow="visible"/>
			</clipPath>
			<path clip-path="url(#SVGID_30_)" fill="#FFFFFF" d="M44.9,280.3c0.8,0,1.4,0.3,2,0.8c0.5,0.5,0.8,1.2,0.8,1.9s-0.2,1.4-0.8,1.9
				c-0.5,0.5-1.2,0.8-2,0.8s-1.4-0.3-1.9-0.8c-0.5-0.5-0.8-1.2-0.8-1.9s0.2-1.4,0.8-1.9C43.5,280.5,44.2,280.3,44.9,280.3
				 M28.8,280.3c0.8,0,1.4,0.3,2,0.8c0.5,0.5,0.8,1.2,0.8,1.9s-0.2,1.4-0.8,1.9c-0.5,0.5-1.2,0.8-2,0.8s-1.4-0.3-1.9-0.8
				c-0.5-0.5-0.8-1.2-0.8-1.9s0.2-1.4,0.8-1.9C27.4,280.5,28.1,280.3,28.8,280.3 M52.4,262.6c0.3,0.4,0.4,0.8,0.3,1.3l-1.4,8.1
				c0,0.4-0.2,0.8-0.5,1c-0.3,0.3-0.8,0.4-1.1,0.4H28.8l-0.4,2.3h19.8c0.4,0,0.9,0.2,1.2,0.5c0.3,0.3,0.5,0.8,0.5,1.2
				s-0.2,0.9-0.5,1.2c-0.3,0.3-0.8,0.5-1.2,0.5H26.3c-0.5,0-1-0.2-1.3-0.6s-0.4-0.9-0.4-1.5l1-5.1l-1.4-14.2l-4.3-1.1
				c-0.4-0.1-0.9-0.4-1-0.9c-0.2-0.4-0.2-0.9-0.1-1.3c0.1-0.5,0.4-0.8,0.9-1c0.4-0.2,0.9-0.3,1.3-0.1l5.1,1.6
				c0.3,0.1,0.5,0.3,0.8,0.6c0.2,0.3,0.3,0.6,0.4,0.9l0.3,2.8l23.5,2.6C51.6,261.9,52,262.2,52.4,262.6"/>
		</g>
		<g>
			<defs>
				<rect id="SVGID_31_" x="-17.3" y="0.6" width="553.7" height="341"/>
			</defs>
			<clipPath id="SVGID_32_">
				<use xlink:href="#SVGID_31_"  overflow="visible"/>
			</clipPath>
			<path clip-path="url(#SVGID_32_)" fill="#EA118D" d="M68.9,181c19.5,0,35.2-15.6,35.2-34.9s-15.8-34.9-35.2-34.9
				s-35.2,15.6-35.2,34.9C33.7,165.4,49.4,181,68.9,181"/>
		</g>
		<g>
			<defs>
				<rect id="SVGID_33_" x="-17.3" y="0.6" width="553.7" height="341"/>
			</defs>
			<clipPath id="SVGID_34_">
				<use xlink:href="#SVGID_33_"  overflow="visible"/>
			</clipPath>
			<path clip-path="url(#SVGID_34_)" fill="#FFFFFF" d="M73,151.1c-3.4,3.4-9,3.4-12.4,0c-3.4-3.4-3.4-8.9,0-12.3
				c3.4-3.4,9-3.4,12.4,0C76.3,142.1,76.3,147.7,73,151.1 M75.1,136.6c-4.6-4.6-12.1-4.6-16.9,0c-4.6,4.6-4.6,12.1,0,16.7
				c4,4,10.3,4.5,15,1.5l5.1,5.1c0.9,0.8,2.2,0.8,3.1,0l0.3-0.3c0.9-0.8,0.9-2.2,0-3l-5.1-5.1C79.7,146.8,79.2,140.6,75.1,136.6"/>
		</g>
	</g>
	<rect x="226.8" y="246" fill="#FED401" width="32" height="5"/>
	<rect x="261.8" y="246" fill="#FED401" width="31.8" height="5"/>
	<rect x="226.8" y="251" fill="#EC1E52" width="32" height="5.1"/>
	<rect x="261.8" y="251" fill="#EC1E52" width="31.8" height="5.1"/>
	<rect x="226.8" y="267" fill="#07B2DC" width="16.1" height="5.1"/>
	<rect x="242.9" y="298.6" fill="#07B2DC" width="15.9" height="5.1"/>
	<polygon fill="#4B355C" points="226.8,261.9 226.8,267 242.9,267 242.9,272 242.9,293.5 242.9,298.6 258.8,298.6 258.8,293.5 
		258.8,256.1 226.8,256.1 	"/>
	<rect x="277.7" y="267" fill="#07B2DC" width="16" height="5.1"/>
	<rect x="261.8" y="298.6" fill="#07B2DC" width="15.9" height="5.1"/>
	<polygon fill="#4B355C" points="261.8,293.5 261.8,298.6 277.7,298.6 277.7,293.5 277.7,272 277.7,267 293.7,267 293.7,261.9 
		293.7,256.1 261.8,256.1 	"/>
</g>
</svg>
