<?xml version="1.0" encoding="utf-8"?>
<!-- Generator: Adobe Illustrator 18.0.0, SVG Export Plug-In . SVG Version: 6.00 Build 0)  -->
<!DOCTYPE svg PUBLIC "-//W3C//DTD SVG 1.1//EN" "http://www.w3.org/Graphics/SVG/1.1/DTD/svg11.dtd">
<svg version="1.1" id="Warstwa_1" xmlns="http://www.w3.org/2000/svg" xmlns:xlink="http://www.w3.org/1999/xlink" x="0px" y="0px"
	 viewBox="0 0 74 61" enable-background="new 0 0 74 61" xml:space="preserve">
<g>
	<g>
		<path d="M71.1,47.7H2.9c-1.6,0-2.9-1.3-2.9-2.9V2.9C0,1.3,1.3,0,2.9,0h68.3C72.7,0,74,1.3,74,2.9v41.9
			C74,46.4,72.7,47.7,71.1,47.7z M2.9,1.9c-0.5,0-0.9,0.4-0.9,0.9v41.9c0,0.5,0.4,0.9,0.9,0.9h68.3c0.5,0,0.9-0.4,0.9-0.9V2.9
			c0-0.5-0.4-0.9-0.9-0.9H2.9z"/>
	</g>
	<g>
		<path d="M67.3,41.9H6.7c-0.5,0-1-0.4-1-1V6.7c0-0.5,0.4-1,1-1h60.7c0.5,0,1,0.4,1,1V41C68.3,41.5,67.9,41.9,67.3,41.9z M7.6,40
			h58.7V7.7H7.6V40z"/>
	</g>
	<g>
		<path d="M50.3,61H23.7c-0.5,0-1-0.4-1-1v-2.9c0-2.2,1.6-3.8,3.8-3.8h20.9c2.1,0,3.8,1.7,3.8,4V60C51.2,60.6,50.8,61,50.3,61z
			 M24.7,59.1h24.6v-1.7c0-1.2-0.8-2-1.9-2H26.6c-1.1,0-1.9,0.8-1.9,1.9V59.1z"/>
	</g>
	<g>
		<path d="M37,51.5c-0.5,0-1-0.4-1-1v-2.9c0-0.5,0.4-1,1-1s1,0.4,1,1v2.9C38,51,37.5,51.5,37,51.5z"/>
	</g>
	<g>
		<g>
			<path d="M39.4,31.5c-0.3,0-0.5-0.1-0.7-0.3L27.9,20.4l-10.7,9c-0.4,0.3-1,0.3-1.4-0.1c-0.3-0.4-0.3-1,0.1-1.4l11.4-9.5
				c0.4-0.3,1-0.3,1.3,0.1l10.7,10.7l14.5-14.5c0.4-0.4,1-0.4,1.4,0c0.4,0.4,0.4,1,0,1.4L40.1,31.2C39.9,31.4,39.6,31.5,39.4,31.5z"
				/>
		</g>
		<g>
			<path d="M54.5,25.8c-0.5,0-1-0.4-1-1v-8.6h-8.5c-0.5,0-1-0.4-1-1c0-0.5,0.4-1,1-1h9.5c0.5,0,1,0.4,1,1v9.5
				C55.5,25.3,55.1,25.8,54.5,25.8z"/>
		</g>
	</g>
</g>
</svg>
