<?xml version="1.0" encoding="utf-8"?>
<!-- Generator: Adobe Illustrator 18.0.0, SVG Export Plug-In . SVG Version: 6.00 Build 0)  -->
<!DOCTYPE svg PUBLIC "-//W3C//DTD SVG 1.1//EN" "http://www.w3.org/Graphics/SVG/1.1/DTD/svg11.dtd">
<svg version="1.1" id="Warstwa_1" xmlns="http://www.w3.org/2000/svg" xmlns:xlink="http://www.w3.org/1999/xlink" x="0px" y="0px"
	 viewBox="0 0 118 118" enable-background="new 0 0 118 118" xml:space="preserve">
<g>
	<defs>
		<rect id="SVGID_1_" x="0.1" y="0.1" width="118" height="118"/>
	</defs>
	<clipPath id="SVGID_2_">
		<use xlink:href="#SVGID_1_"  overflow="visible"/>
	</clipPath>
	<path clip-path="url(#SVGID_2_)" d="M64.3,66.2c-5.8,5.8-15.2,5.8-21,0c-5.8-5.8-5.8-15.2,0-21c5.8-5.8,15.2-5.8,21,0
		S70.2,60.4,64.3,66.2 M68.1,41.5c-7.9-7.9-20.6-7.9-28.4,0c-7.9,7.9-7.9,20.6,0,28.4c6.9,6.9,17.5,7.7,25.3,2.6l8.6,8.6
		c1.4,1.4,3.7,1.4,5.1,0l0.6-0.6c1.4-1.4,1.4-3.7,0-5.1l-8.6-8.6C75.8,59,74.9,48.3,68.1,41.5"/>
</g>
</svg>
