<?xml version="1.0" encoding="utf-8"?>
<!-- Generator: Adobe Illustrator 18.0.0, SVG Export Plug-In . SVG Version: 6.00 Build 0)  -->
<!DOCTYPE svg PUBLIC "-//W3C//DTD SVG 1.1//EN" "http://www.w3.org/Graphics/SVG/1.1/DTD/svg11.dtd">
<svg version="1.1" id="Warstwa_1" xmlns="http://www.w3.org/2000/svg" xmlns:xlink="http://www.w3.org/1999/xlink" x="0px" y="0px"
	 viewBox="0 0 118 118" enable-background="new 0 0 118 118" xml:space="preserve">
<g>
	<path d="M93.5,65.5v-7l7.3-3.4L59,31.6L17.2,55.1l7,3.2l1.7,0.9l8.6,3.8c0.1-0.1,0.2-0.1,0.3-0.2v0c5.7-5,13.8-7.5,24.4-7.5
		c10.6,0,18.7,2.5,24.4,7.5v0c0.1,0.1,0.2,0.1,0.3,0.2l6.9-3.2v5.7l-1.9,3.2l-3.2,5.5v0.1h6.4h6.5l-3.2-5.6L93.5,65.5z"/>
	<path d="M36.5,66.4v0.4v4.9v1.2c5.7,3.6,13.2,5.4,22.7,5.4s17-1.8,22.7-5.4v-1.2v-4.9v-0.4c-5.7-4.8-13.2-7.2-22.7-7.2
		S42.2,61.6,36.5,66.4"/>
</g>
</svg>
