<?xml version="1.0" encoding="utf-8"?>
<!-- Generator: Adobe Illustrator 18.0.0, SVG Export Plug-In . SVG Version: 6.00 Build 0)  -->
<!DOCTYPE svg PUBLIC "-//W3C//DTD SVG 1.1//EN" "http://www.w3.org/Graphics/SVG/1.1/DTD/svg11.dtd">
<svg version="1.1" id="Warstwa_1" xmlns="http://www.w3.org/2000/svg" xmlns:xlink="http://www.w3.org/1999/xlink" x="0px" y="0px"
	 viewBox="0 0 80 61" enable-background="new 0 0 80 61" xml:space="preserve">
<g>
	<g>
		<path d="M71.4,61c-0.1,0-0.1,0-0.2,0c-0.2,0-4.2-0.9-7.8-4.6c-0.3,0.1-0.7,0.2-1,0.3c-1.1,0.3-2.2,0.6-3.4,0.6
			c-5.3,0-9.1-1.2-13-4c-0.4-0.3-0.5-0.9-0.2-1.4c0.3-0.4,0.9-0.5,1.4-0.2c3.5,2.6,6.9,3.6,11.8,3.6c0.9,0,1.9-0.3,2.9-0.5
			c0.6-0.2,1.1-0.3,1.7-0.4c0.3-0.1,0.7,0.1,0.9,0.3c2.1,2.4,4.5,3.6,5.9,4.1v-7.3c0-0.3,0.2-0.6,0.4-0.8C73.5,48.8,78,45,78,40
			c0-5.6-3.3-9.1-10.7-11.5c-0.5-0.2-0.8-0.7-0.6-1.2c0.2-0.5,0.7-0.8,1.2-0.6C76.2,29.3,80,33.6,80,40c0,4.2-2.7,8.4-7.6,11.9V60
			c0,0.3-0.1,0.6-0.4,0.7C71.9,60.9,71.6,61,71.4,61z"/>
	</g>
	<g>
		<path d="M12.4,57.9c-0.2,0-0.4-0.1-0.5-0.2c-0.3-0.2-0.4-0.5-0.4-0.8V44.3C6.1,40.6,0,34.4,0,25.7C0,11.3,14,0,31.8,0
			c17.7,0,31.1,11.1,31.1,25.7c0,14.3-12.1,23.8-30.1,23.8c-2.5,0-5.2-0.4-7.6-0.9c-5.6,6.1-12.1,9-12.3,9.2
			C12.7,57.9,12.5,57.9,12.4,57.9z M31.8,1.9C15,1.9,2,12.4,2,25.7c0,8,6,13.8,11,17.3c0.3,0.2,0.4,0.5,0.4,0.8v11.6
			c2.2-1.2,6.8-4,10.7-8.4c0.2-0.3,0.6-0.4,0.9-0.3c2.4,0.5,5.3,0.9,7.8,0.9c16.9,0,28.2-8.8,28.2-21.9C60.9,12.2,48.4,1.9,31.8,1.9
			z"/>
	</g>
	<g>
		<path d="M31.4,29.6c-2.1,0-3.8-1.7-3.8-3.8s1.7-3.8,3.8-3.8c2.1,0,3.8,1.7,3.8,3.8S33.5,29.6,31.4,29.6z M31.4,23.8
			c-1,0-1.9,0.8-1.9,1.9s0.8,1.9,1.9,1.9c1,0,1.9-0.8,1.9-1.9S32.5,23.8,31.4,23.8z"/>
	</g>
	<g>
		<path d="M44.8,29.6c-2.1,0-3.8-1.7-3.8-3.8s1.7-3.8,3.8-3.8c2.1,0,3.8,1.7,3.8,3.8S46.9,29.6,44.8,29.6z M44.8,23.8
			c-1,0-1.9,0.8-1.9,1.9s0.8,1.9,1.9,1.9c1,0,1.9-0.8,1.9-1.9S45.8,23.8,44.8,23.8z"/>
	</g>
	<g>
		<path d="M18.1,29.7c-2.1,0-3.8-1.7-3.8-3.8s1.7-3.8,3.8-3.8s3.8,1.7,3.8,3.8S20.2,29.7,18.1,29.7z M18.1,24c-1,0-1.9,0.8-1.9,1.9
			s0.8,1.9,1.9,1.9c1,0,1.9-0.8,1.9-1.9S19.1,24,18.1,24z"/>
	</g>
</g>
</svg>
