<?xml version="1.0" encoding="utf-8"?>
<!-- Generator: Adobe Illustrator 18.0.0, SVG Export Plug-In . SVG Version: 6.00 Build 0)  -->
<!DOCTYPE svg PUBLIC "-//W3C//DTD SVG 1.1//EN" "http://www.w3.org/Graphics/SVG/1.1/DTD/svg11.dtd">
<svg version="1.1" id="Warstwa_1" xmlns="http://www.w3.org/2000/svg" xmlns:xlink="http://www.w3.org/1999/xlink" x="0px" y="0px"
	 viewBox="0 0 118 118" enable-background="new 0 0 118 118" xml:space="preserve">
<g>
	<defs>
		<rect id="SVGID_1_" x="-0.2" y="-0.2" width="118" height="118"/>
	</defs>
	<clipPath id="SVGID_2_">
		<use xlink:href="#SVGID_1_"  overflow="visible"/>
	</clipPath>
	<path clip-path="url(#SVGID_2_)" d="M58.8,60.7c6.9,0,12.4-8.5,12.4-16.4s-5.6-12-12.4-12c-6.9,0-12.4,4.2-12.4,12
		C46.4,52.2,52,60.7,58.8,60.7 M82.9,73.7v9H34.8v-9c0-3.3,2.9-7.4,6.4-9.1l7.8-3.7l5.4,11.3l2.8-7.5c0.5,0.1,1.1,0.2,1.7,0.2
		c0.6,0,1.1-0.1,1.7-0.2l2.6,7.2l5.3-11.1l8.1,3.8C80,66.2,82.9,70.3,82.9,73.7"/>
</g>
</svg>
