<?xml version="1.0" encoding="utf-8"?>
<!-- Generator: Adobe Illustrator 18.0.0, SVG Export Plug-In . SVG Version: 6.00 Build 0)  -->
<!DOCTYPE svg PUBLIC "-//W3C//DTD SVG 1.1//EN" "http://www.w3.org/Graphics/SVG/1.1/DTD/svg11.dtd">
<svg version="1.1" id="Warstwa_1" xmlns="http://www.w3.org/2000/svg" xmlns:xlink="http://www.w3.org/1999/xlink" x="0px" y="0px"
	 viewBox="0 0 104.5 90.8" enable-background="new 0 0 104.5 90.8" xml:space="preserve">
<g>
	<rect x="0" y="0" fill="#FFD400" width="49.9" height="8"/>
	<rect x="54.7" y="0" fill="#FFD400" width="49.8" height="8"/>
	<rect x="0" y="8" fill="#ED1651" width="49.9" height="8"/>
	<rect x="54.7" y="8" fill="#ED1651" width="49.8" height="8"/>
	<rect x="0" y="33" fill="#00B2DD" width="25.2" height="8"/>
	<rect x="25.2" y="82.8" fill="#00B2DD" width="24.7" height="8"/>
	<polygon fill="#4B345C" points="0,25.1 0,33 25.2,33 25.2,41 25.2,74.9 25.2,82.8 49.9,82.8 49.9,74.9 49.9,15.9 0,15.9 	"/>
	<rect x="79.5" y="33" fill="#00B2DD" width="25" height="8"/>
	<rect x="54.7" y="82.8" fill="#00B2DD" width="24.7" height="8"/>
	<polygon fill="#4B345C" points="54.7,74.9 54.7,82.8 79.5,82.8 79.5,74.9 79.5,41 79.5,33 104.5,33 104.5,25.1 104.5,15.9 
		54.7,15.9 	"/>
</g>
</svg>
